<?xml version="1.0" standalone="no"?>
<!DOCTYPE svg PUBLIC "-//W3C//DTD SVG 20010904//EN"
 "http://www.w3.org/TR/2001/REC-SVG-20010904/DTD/svg10.dtd">
<svg version="1.0" xmlns="http://www.w3.org/2000/svg"
 width="300.000000pt" height="300.000000pt" viewBox="0 0 300.000000 300.000000"
 preserveAspectRatio="xMidYMid meet">
<metadata>
Created by potrace 1.10, written by Peter Selinger 2001-2011
</metadata>
<g transform="translate(0.000000,300.000000) scale(0.100000,-0.100000)"
fill="#000000" stroke="none">
<path d="M1387 2599 c-70 -9 -198 -48 -246 -74 l-26 -14 35 0 c19 0 54 8 78
19 80 36 196 53 317 47 102 -5 205 -27 231 -48 6 -5 33 -11 60 -14 l49 -5 -51
25 c-113 56 -307 83 -447 64z"/>
<path d="M1391 2548 c-35 -5 -73 -15 -84 -23 -19 -13 -17 -14 19 -7 50 9 297
9 349 0 35 -6 38 -5 22 6 -10 8 -59 18 -110 24 -106 12 -111 12 -196 0z"/>
<path d="M950 2440 c0 -50 0 -50 33 -50 47 0 95 -34 117 -83 18 -39 20 -69 20
-432 0 -358 -2 -393 -19 -431 -21 -47 -62 -68 -116 -62 l-35 4 0 -48 0 -48
260 0 260 0 0 45 c0 41 -2 45 -27 51 -92 20 -135 53 -153 115 -6 18 -10 100
-10 181 l0 148 35 0 c35 0 35 0 35 -45 0 -77 52 -145 109 -145 48 0 54 14 21
45 -40 38 -40 77 -1 116 17 17 40 29 55 29 24 0 26 3 26 50 0 44 -2 50 -21 50
-54 0 -116 82 -103 135 6 23 4 24 -17 17 -17 -7 -25 -18 -27 -41 -2 -17 1 -31
7 -31 6 0 11 -6 11 -14 0 -8 23 -34 50 -59 67 -60 65 -87 -7 -87 -25 0 -26 0
-8 20 17 19 17 21 1 39 -10 11 -31 25 -47 31 -27 12 -29 16 -29 70 0 58 25
110 53 110 7 0 6 -4 -3 -10 -11 -7 -4 -10 26 -10 36 0 47 -6 90 -52 28 -29 78
-77 112 -106 34 -29 62 -59 62 -66 0 -16 -62 -74 -143 -135 -52 -39 -56 -46
-43 -59 13 -14 20 -12 58 13 24 15 62 43 86 62 l42 34 0 -143 c0 -119 -4 -150
-20 -185 -21 -48 -66 -80 -122 -89 -37 -6 -38 -8 -38 -50 l0 -44 253 0 253 0
-1 44 c0 43 -1 44 -31 43 -44 -1 -82 27 -105 76 -17 39 -19 71 -19 440 0 432
1 443 55 485 16 13 42 22 61 22 l34 0 0 50 0 50 -250 0 -250 0 0 -50 c0 -50 0
-50 33 -50 46 0 109 -39 129 -80 15 -29 18 -63 18 -195 l0 -159 -57 55 c-84
81 -182 159 -200 159 -9 0 -30 -9 -48 -20 -39 -24 -65 -82 -65 -143 0 -40 -2
-43 -26 -42 l-26 2 1 159 c2 132 5 164 20 189 23 40 70 71 120 79 41 6 41 6
41 51 l0 45 -260 0 -260 0 0 -50z m451 20 c6 0 7 -4 4 -10 -3 -5 2 -10 12 -10
10 0 -7 -14 -37 -31 -70 -38 -88 -56 -105 -105 -16 -46 -28 -49 -36 -8 l-7 29
-1 -29 c0 -16 6 -37 15 -47 9 -10 14 -24 11 -31 -2 -7 -14 7 -26 32 -18 39
-21 42 -21 18 0 -14 11 -40 25 -56 14 -17 25 -42 25 -58 l0 -27 -24 22 c-13
12 -36 44 -50 72 l-28 50 21 42 c28 57 99 127 110 108 11 -17 45 0 62 30 6 12
17 18 26 15 8 -3 19 -6 24 -6z m379 0 c134 -1 139 -15 10 -27 l-65 -7 40 -9
c47 -10 137 6 155 29 7 8 30 14 52 14 32 0 39 -3 36 -17 -2 -10 -10 -18 -18
-19 -21 -1 -52 -15 -71 -31 -13 -11 -22 -11 -40 -3 -18 8 -31 8 -49 0 l-25
-11 24 5 c13 3 33 1 43 -5 16 -9 17 -13 4 -37 -7 -15 -16 -45 -20 -67 -17
-101 -14 -96 -59 -93 l-42 3 -8 60 c-12 87 -63 147 -142 166 -27 6 -28 7 -5 8
14 0 49 -10 78 -24 40 -19 52 -29 52 -47 1 -20 2 -21 10 -6 8 14 16 15 39 7
31 -11 48 -38 54 -84 2 -18 5 -9 6 22 1 50 -1 53 -36 78 -30 20 -33 25 -18 26
11 0 -20 9 -70 19 -49 10 -91 23 -93 28 -2 6 -14 5 -30 -4 -37 -19 -42 -18
-42 11 0 24 2 25 53 21 28 -2 108 -5 177 -6z m-533 -22 c-9 -14 -29 -16 -141
-15 -110 2 -131 4 -134 18 -2 14 15 15 141 15 132 -1 143 -2 134 -18z m-79
-57 c17 -1 15 -22 -7 -50 l-18 -23 -21 35 c-21 36 -16 48 18 41 8 -1 21 -3 28
-3z m80 -367 c-3 -74 -1 -81 14 -73 19 10 78 1 78 -12 0 -5 5 -9 11 -9 15 0
55 -32 56 -45 1 -5 -3 -18 -9 -28 -8 -16 -7 -17 9 -9 22 11 74 0 55 -12 -7 -4
-18 -19 -23 -33 -9 -24 -11 -25 -28 -9 -22 20 -28 20 -34 -1 -3 -10 -5 1 -6
24 0 24 4 45 12 50 21 14 -154 20 -200 7 -42 -12 -43 -11 -43 12 0 24 1 24
100 24 55 0 100 4 100 9 0 16 -22 19 -97 13 -65 -4 -73 -3 -78 14 -4 10 -11
27 -16 36 -5 10 -9 55 -9 100 1 65 3 79 12 64 7 -12 8 -45 4 -90 -3 -41 -2
-65 3 -56 17 30 20 105 7 155 -8 28 -11 54 -9 58 3 4 25 -18 50 -50 l44 -57
-3 -82z m565 146 c26 0 37 -4 37 -15 0 -11 -12 -15 -50 -15 -27 0 -50 -2 -50
-4 0 -25 73 -151 99 -172 7 -6 12 -19 10 -29 -3 -14 -17 -2 -55 50 -50 67 -74
124 -74 174 0 19 4 22 23 17 12 -3 39 -6 60 -6z m27 -101 c0 -57 -10 -57 -40
0 -21 42 -18 51 17 51 21 0 23 -4 23 -51z m-22 -121 l26 -28 -62 0 -62 0 0 41
c0 28 4 38 12 33 8 -5 9 5 5 35 l-5 42 30 -48 c16 -26 42 -60 56 -75z m-570
-90 c14 -14 16 -77 3 -110 -14 -36 -58 -78 -82 -78 -21 0 -21 0 2 19 22 18 22
21 12 77 -6 33 -14 67 -18 77 -6 15 -4 16 18 8 14 -5 27 -8 30 -5 2 2 12 -10
20 -28 14 -28 17 -30 17 -10 0 12 -3 22 -8 22 -4 0 -13 9 -20 20 -10 16 -10
20 1 20 7 0 18 -5 25 -12z m598 -8 c15 0 12 -28 -12 -117 -8 -29 -14 -54 -13
-55 1 -2 -6 -21 -15 -43 -20 -47 -24 -151 -7 -168 16 -16 28 5 37 63 12 83 24
90 21 13 l-3 -73 -53 -54 -54 -54 69 -5 c38 -3 101 -14 139 -25 l70 -20 -150
5 c-154 6 -184 14 -172 47 4 9 24 28 46 43 22 16 40 34 41 41 0 8 -13 27 -30
42 -26 24 -30 35 -30 79 0 38 4 53 18 60 26 14 71 102 78 154 9 62 -8 68 -58
21 -36 -35 -40 -37 -33 -14 13 44 52 75 83 64 8 -2 20 -4 28 -4z m-596 -188
c-9 -3 -9 -6 1 -12 9 -6 6 -16 -14 -40 -15 -17 -27 -29 -27 -26 0 4 -11 -1
-25 -10 -40 -26 -44 -6 -5 28 19 16 28 26 20 22 -8 -4 -23 -14 -32 -22 -17
-14 -18 -13 -18 11 0 21 9 31 38 46 20 11 44 30 52 43 l15 23 3 -30 c2 -17 -1
-31 -8 -33z m-17 -105 c-4 -6 0 -8 10 -4 13 5 17 1 17 -18 0 -23 -4 -25 -44
-25 -25 0 -48 5 -52 12 -4 7 -3 8 4 4 8 -4 12 0 12 12 0 24 3 27 34 28 16 1
23 -2 19 -9z m41 -73 c3 -8 2 -13 -3 -10 -4 3 -36 6 -69 7 -82 3 -80 19 2 19
48 0 65 -4 70 -16z m-39 -30 c26 -10 67 -28 89 -41 l41 -24 -35 7 c-19 3 -62
17 -94 30 -33 13 -70 24 -83 24 -13 0 -23 5 -23 10 0 15 51 12 105 -6z m492
-31 c-15 -16 -34 -37 -42 -48 -13 -18 -14 -19 -15 -2 0 26 -20 10 -20 -17 0
-12 6 -28 13 -35 10 -10 7 -12 -13 -9 -35 4 -41 51 -8 69 13 8 26 13 29 14 4
0 19 12 34 28 15 15 32 27 38 27 6 0 -2 -12 -16 -27z m-547 7 c12 -8 11 -10
-7 -10 -13 0 -23 -4 -23 -9 0 -5 -13 -11 -29 -13 -29 -4 -29 -4 -13 19 18 24
47 29 72 13z m710 -41 c16 -12 50 -28 77 -36 l48 -13 -41 5 c-23 3 -61 14 -85
25 -24 11 -54 20 -67 20 -13 0 -20 4 -17 10 10 17 54 11 85 -11z m-557 -24
c43 -14 87 -25 97 -25 11 0 20 -5 20 -11 0 -8 -13 -9 -42 -5 -47 8 -336 8
-349 0 -13 -8 -89 8 -89 19 0 6 3 8 6 4 3 -3 17 -2 30 3 14 6 26 6 29 0 3 -5
68 -8 144 -7 98 1 134 5 123 12 -9 6 -72 9 -140 9 -124 -1 -140 2 -80 16 70
17 171 10 251 -15z m264 -13 c-21 -23 -21 -29 1 -35 9 -2 2 -4 -15 -4 -28 0
-33 4 -33 23 0 21 7 26 54 33 5 0 2 -7 -7 -17z"/>
<path d="M1490 2401 c0 -15 -10 -20 -46 -26 -71 -10 -47 -14 36 -6 41 5 65 9
53 10 -16 1 -23 7 -23 21 0 11 -4 20 -10 20 -5 0 -10 -8 -10 -19z"/>
<path d="M2047 2391 c-4 -18 -11 -22 -26 -18 -15 4 -4 -14 36 -58 115 -125
173 -278 173 -455 0 -159 -52 -317 -140 -429 -22 -28 -40 -55 -40 -61 0 -17
19 -11 30 10 6 11 18 20 28 20 12 0 6 -10 -20 -35 -21 -18 -38 -42 -38 -52 0
-30 104 82 148 160 23 40 53 108 69 152 25 74 27 92 27 230 0 138 -2 156 -27
230 -36 102 -93 199 -161 272 -50 53 -53 55 -59 34z m167 -254 c15 -34 28 -69
29 -77 2 -8 5 -19 8 -25 14 -23 21 -96 20 -190 -2 -124 -9 -165 -28 -165 -8 0
-11 5 -8 11 14 22 20 78 19 184 -2 87 -7 127 -28 194 -14 47 -33 95 -41 108
-9 13 -11 23 -6 23 5 0 21 -28 35 -63z m-26 -638 c-32 -58 -37 -23 -6 46 22
50 23 52 26 24 2 -17 -6 -46 -20 -70z"/>
<path d="M893 2357 c-136 -155 -200 -336 -191 -540 8 -177 67 -326 178 -450
l45 -51 6 50 c5 42 3 53 -16 74 -35 38 -80 120 -111 202 -26 67 -28 84 -29
213 0 128 2 147 28 222 32 92 89 187 150 251 l41 42 -31 0 c-17 0 -33 5 -35
11 -2 6 -18 -4 -35 -24z m-77 -183 c-57 -119 -83 -270 -67 -389 13 -92 45
-198 72 -237 11 -14 19 -40 19 -58 0 -17 4 -29 9 -25 10 6 37 -34 33 -48 -1
-5 7 -11 18 -14 11 -3 20 -12 20 -20 0 -10 -5 -11 -18 -4 -26 14 -48 41 -33
41 8 0 8 6 -1 20 -7 11 -15 15 -18 9 -7 -10 -66 112 -93 191 -28 80 -46 263
-27 275 4 3 6 14 3 24 -6 23 32 167 53 198 8 12 14 27 14 33 0 11 33 60 37 56
2 -2 -8 -25 -21 -52z"/>
<path d="M1950 2346 c0 -9 -7 -16 -16 -16 -10 0 6 -24 44 -65 102 -111 154
-248 155 -405 0 -144 -54 -291 -143 -393 -23 -26 -41 -49 -39 -51 2 -2 15 -9
29 -16 22 -12 27 -10 62 30 193 217 204 579 26 814 -60 79 -118 129 -118 102z"/>
<path d="M979 2303 c-93 -101 -148 -218 -169 -360 -26 -178 37 -383 159 -512
25 -27 34 -31 46 -21 8 6 19 9 24 6 5 -4 12 -2 15 2 3 5 -11 24 -30 43 -90 86
-155 248 -156 389 -2 152 47 287 145 403 32 36 57 69 57 72 0 3 -7 5 -15 5 -8
0 -15 5 -15 10 0 20 -18 9 -61 -37z"/>
<path d="M1365 2313 c-40 -12 -46 -17 -30 -23 19 -7 19 -7 -3 -19 -12 -6 -22
-18 -22 -25 0 -11 12 -10 61 5 79 25 187 24 259 -1 30 -10 56 -17 58 -16 6 7
-11 35 -18 31 -5 -3 -12 0 -16 6 -5 8 -3 9 5 4 9 -5 12 -2 9 11 -2 11 -18 23
-43 30 -57 18 -200 16 -260 -3z"/>
<path d="M1059 2200 c-51 -65 -74 -106 -99 -180 -26 -77 -31 -198 -11 -280 18
-73 74 -179 116 -220 l35 -34 0 28 c0 15 -4 25 -9 21 -12 -7 -41 34 -75 104
-33 68 -26 80 8 14 25 -49 52 -80 62 -71 3 3 -8 27 -24 52 -87 136 -81 338 14
487 25 40 25 41 3 34 -23 -8 -21 3 8 37 8 9 13 25 11 34 -2 14 -11 8 -39 -26z"/>
<path d="M1900 2221 c0 -13 8 -31 18 -40 10 -9 27 -29 37 -46 19 -30 19 -30
-13 4 -44 45 -51 33 -15 -26 47 -77 65 -133 70 -218 6 -95 -13 -184 -58 -262
-33 -60 -23 -71 17 -18 15 20 29 33 31 31 6 -6 -25 -62 -54 -98 l-22 -28 -4
28 c-2 15 -4 5 -5 -23 l-1 -50 39 45 c102 116 147 305 110 465 -16 69 -63 162
-110 215 -36 41 -39 43 -40 21z m129 -452 c-6 -30 -15 -58 -19 -63 -5 -5 -3
17 4 48 7 31 11 56 9 56 -2 0 -1 5 2 11 14 21 15 1 4 -52z"/>
<path d="M1415 2224 c-45 -11 -105 -36 -105 -44 0 -5 6 -11 13 -13 10 -4 10
-6 0 -6 -12 -1 -19 -31 -8 -31 3 0 28 14 56 31 l51 32 84 -10 c52 -7 103 -20
134 -35 l50 -25 0 29 c0 25 -7 32 -47 50 -47 21 -180 34 -228 22z"/>
<path d="M1539 2147 c7 -9 21 -17 30 -17 9 0 40 -14 69 -30 42 -23 53 -26 50
-13 -4 20 -78 60 -128 70 -32 6 -34 5 -21 -10z"/>
<path d="M1071 2030 c-41 -94 -38 -175 4 -140 18 15 20 47 4 52 -9 3 -7 19 5
56 25 75 16 99 -13 32z"/>
<path d="M1901 2059 c-1 -15 6 -43 14 -62 19 -46 19 -61 -1 -53 -12 5 -14 1
-9 -17 11 -34 33 -53 46 -40 16 16 4 87 -25 148 -21 43 -25 46 -25 24z"/>
<path d="M1460 2022 c0 -4 10 -18 23 -29 23 -21 87 -39 87 -24 0 11 -55 46
-87 56 -13 3 -23 2 -23 -3z"/>
<path d="M1600 1925 c0 -20 5 -25 27 -25 l26 0 -23 25 c-13 14 -25 25 -27 25
-2 0 -3 -11 -3 -25z"/>
<path d="M1600 1870 c0 -5 15 -10 34 -10 19 0 38 5 41 10 4 6 -10 10 -34 10
-23 0 -41 -4 -41 -10z"/>
<path d="M1044 1845 c-10 -26 4 -100 28 -152 27 -57 39 -34 14 28 -18 45 -22
104 -6 79 8 -11 10 -6 8 20 -3 38 -33 55 -44 25z"/>
<path d="M1917 1854 c-11 -11 -8 -56 3 -49 14 9 12 -17 -6 -70 -8 -26 -14 -58
-12 -73 3 -23 7 -18 27 33 29 71 34 158 11 163 -9 1 -19 0 -23 -4z"/>
<path d="M1480 1740 c-12 -8 -12 -10 2 -15 10 -4 27 0 40 9 l22 16 -24 0 c-14
0 -32 -4 -40 -10z"/>
<path d="M1585 1670 c-27 -16 -46 -30 -41 -30 11 0 96 49 96 55 0 7 -2 7 -55
-25z"/>
<path d="M1300 1676 c0 -16 36 -49 80 -72 26 -14 57 -19 120 -19 75 0 91 3
138 29 33 18 52 36 52 47 0 16 -6 14 -48 -11 -101 -63 -193 -62 -291 5 -30 19
-51 28 -51 21z"/>
<path d="M1305 1599 c10 -33 31 -47 94 -66 111 -32 291 5 291 60 l0 24 -52
-26 c-45 -22 -66 -26 -138 -26 -85 0 -87 1 -194 53 -4 2 -5 -6 -1 -19z"/>
<path d="M1311 1514 c27 -57 35 -65 82 -79 60 -18 136 -19 207 -4 43 9 50 14
50 34 0 15 7 26 20 30 11 3 20 11 20 17 0 6 -7 7 -17 3 -113 -47 -233 -47
-347 0 -11 5 -17 4 -15 -1z m147 -54 c21 0 24 -2 12 -10 -21 -14 -33 -12 -56
6 -17 14 -17 15 -1 10 10 -3 31 -6 45 -6z"/>
<path d="M2111 1319 c0 -23 1 -23 9 -4 7 17 9 17 9 3 1 -22 31 -24 31 -3 0 8
-4 15 -9 15 -5 0 -16 3 -25 6 -12 5 -16 0 -15 -17z"/>
<path d="M1490 1285 c0 -12 -20 -15 -112 -16 l-113 -1 45 -15 c65 -22 270 -27
340 -9 l55 14 -97 1 c-91 1 -98 2 -98 21 0 11 -4 20 -10 20 -5 0 -10 -7 -10
-15z"/>
<path d="M1015 1245 c17 -14 56 -39 88 -56 271 -144 616 -125 872 50 l30 21
-36 0 c-23 0 -39 -6 -42 -14 -9 -22 -143 -84 -232 -107 -90 -23 -263 -28 -353
-10 -116 23 -292 103 -292 132 0 5 -15 9 -32 9 l-33 -1 30 -24z"/>
<path d="M1154 1262 c11 -18 73 -47 148 -70 132 -39 374 -25 480 29 68 35 49
37 -45 6 -86 -29 -102 -31 -237 -31 -148 -1 -187 7 -334 69 -14 6 -17 5 -12
-3z"/>
<path d="M310 893 l0 -168 105 0 105 0 0 28 0 27 -77 0 -78 0 0 45 -1 45 73 0
c71 0 73 1 73 25 0 24 -2 25 -73 25 l-72 0 3 45 4 45 74 0 c72 0 74 1 74 25
l0 25 -105 0 -105 0 0 -167z"/>
<path d="M620 1056 c0 -3 29 -78 65 -168 87 -220 86 -220 176 5 l67 167 -31 0
c-32 0 -32 0 -76 -125 -24 -69 -46 -123 -50 -120 -3 4 -25 59 -47 123 -40 113
-42 117 -73 120 -17 2 -31 1 -31 -2z"/>
<path d="M1030 893 l0 -168 107 1 108 1 3 27 3 26 -80 0 -81 0 0 45 0 45 75 0
c73 0 75 1 75 25 0 24 -2 25 -75 25 l-75 0 0 45 0 45 80 0 c79 0 80 0 80 25
l0 25 -110 0 -110 0 0 -167z"/>
<path d="M1360 890 l0 -170 31 0 31 0 -4 110 c-2 61 -1 110 2 109 3 0 45 -50
94 -110 48 -60 95 -109 102 -109 11 0 14 32 14 170 l0 170 -32 0 -31 0 7 -110
c3 -60 5 -110 2 -110 -2 0 -44 49 -92 110 -52 64 -96 110 -106 110 -16 0 -18
-15 -18 -170z"/>
<path d="M1740 1035 c0 -23 3 -25 50 -25 l50 0 0 -146 0 -145 27 3 26 3 -2
143 -2 142 50 0 c48 0 51 2 51 25 l0 25 -125 0 -125 0 0 -25z"/>
<path d="M2100 945 c0 -134 12 -175 62 -205 70 -43 170 -12 195 60 7 19 12 86
12 148 l1 112 -30 0 -30 0 0 -120 c0 -115 -1 -122 -25 -145 -13 -14 -36 -25
-50 -25 -14 0 -37 11 -50 25 -24 23 -25 30 -25 145 l0 120 -30 0 -30 0 0 -115z"/>
<path d="M2509 1032 c-24 -22 -31 -36 -31 -65 0 -50 21 -72 94 -99 70 -25 88
-48 58 -78 -25 -25 -55 -25 -103 -1 -37 19 -37 19 -48 -1 -16 -29 -5 -45 38
-57 82 -23 148 -6 171 44 30 65 4 107 -89 145 -65 26 -82 47 -59 75 16 19 67
19 102 1 25 -13 29 -13 38 4 16 29 12 37 -21 49 -59 20 -115 14 -150 -17z"/>
<path d="M814 560 c0 -51 3 -70 13 -70 9 0 13 14 13 43 l0 42 19 -24 18 -23
21 27 22 28 0 -47 c0 -25 5 -46 10 -46 6 0 10 31 10 73 l0 72 -33 -38 -32 -38
-24 36 c-13 19 -26 35 -30 35 -3 0 -6 -32 -7 -70z"/>
<path d="M1086 564 c-15 -37 -25 -69 -22 -71 8 -8 26 7 26 23 0 23 51 18 57
-6 3 -11 12 -20 20 -20 8 0 13 3 11 8 -1 4 -14 35 -28 70 -14 34 -27 62 -31
62 -3 0 -18 -30 -33 -66z"/>
<path d="M1280 624 c0 -3 9 -19 21 -35 l21 -29 -21 -35 c-17 -29 -18 -35 -5
-35 8 0 19 12 25 28 l11 27 14 -27 c8 -16 22 -28 30 -28 13 0 12 5 -5 29 -12
16 -21 34 -21 41 0 7 9 25 21 41 17 24 18 29 5 29 -8 0 -22 -12 -30 -27 l-14
-28 -13 28 c-10 23 -39 39 -39 21z"/>
<path d="M1500 560 c0 -40 4 -70 10 -70 6 0 10 30 10 70 0 40 -4 70 -10 70 -6
0 -10 -30 -10 -70z"/>
<path d="M1640 560 c0 -58 3 -70 16 -70 13 0 15 8 12 40 -4 45 1 50 21 18 l14
-22 24 29 25 30 -5 -47 c-3 -36 -1 -48 9 -48 11 0 14 17 14 70 0 39 -3 70 -7
70 -5 0 -19 -16 -32 -36 l-24 -35 -23 28 c-13 15 -23 31 -24 36 0 4 -4 7 -10
7 -6 0 -10 -30 -10 -70z"/>
<path d="M1890 572 c0 -64 11 -82 50 -82 39 0 50 18 50 82 0 75 -18 76 -22 1
-3 -54 -5 -58 -28 -58 -23 0 -25 4 -28 58 -4 75 -22 74 -22 -1z"/>
<path d="M2122 618 c-21 -21 -13 -47 18 -63 40 -21 40 -48 0 -43 -16 1 -31 -2
-32 -7 -2 -6 14 -11 34 -13 28 -2 39 1 47 17 15 27 5 48 -31 60 -36 13 -32 37
6 34 17 -1 26 3 26 13 0 17 -51 19 -68 2z"/>
</g>
</svg>
